You've Got Mail *1998*[HDTV][720p][ENG, POL]

General information:
Country: USA
Release: 18 December 1998
Genre: Comedy, Romance 
Director: Nora Ephron
Screenplay: Nora Ephron, Delia Ephron, Miklós László (play "Parfumerie") (as Nikolaus Laszlo) 
Original Music: Sinéad O'Conno, George Fenton
Cinematography by: John Lindley
Duration: 1h 59mn
Language: English, Polish
Subtitles: English, Polish
Rating: 7.1/10 - 24512 votes 
[img]http://img171.imageshack.us/img171/9500/20560127.jpg[/img]

[img]http://img824.imageshack.us/img824/6642/beznazwy1wnc.jpg[/img]

Best to watch program * Splash Pro* 
Cast:
Tom Hanks  ...  Joe Fox  
Meg Ryan  ...  Kathleen Kelly  
Greg Kinnear  ...  Frank Navasky  
Parker Posey  ...  Patricia Eden  
Jean Stapleton  ...  Birdie Conrad  
Steve Zahn  ...  George Pappas  
Heather Burns  ...  Christina Plutzker  
Dave Chappelle  ...  Kevin Jackson  
Dabney Coleman  ...  Nelson Fox  
John Randolph  ...  Schuyler Fox  
Hallee Hirsh  ...  Annabelle Fox  
Jeffrey Scaperrotta  ...  Matt Fox  
Cara Seymour  ...  Gillian Quinn  
Katie Finneran  ...  Maureen, the Nanny  
Michael Badalucco  ...  Charlie  

Plot:
Two business rivals hate each other at the office but fall in love over the internet. 

Specifications:
General
Format                           : Matroska
Overall bit rate                 : 5 314 Kbps

Video
Format                           : AVC
Format/Info                      : Advanced Video Codec
Format profile                   : High@L4.1
Format settings, CABAC           : Yes
Format settings, ReFrames        : 3 frames
Muxing mode                      : Container profile=Unknown@4.1
Codec ID                         : V_MPEG4/ISO/AVC
Bit rate                         : 4 697 Kbps
Nominal bit rate                 : 5 010 Kbps
Width                            : 1 280 pixels
Height                           : 720 pixels
Display aspect ratio             : 16:9
Frame rate                       : 23.976 fps

Audio 1
Format                           : AC-3
Format/Info                      : Audio Coding 3
Mode extension                   : CM (complete main)
Codec ID                         : A_AC3
Bit rate mode                    : Constant
Bit rate                         : 128 Kbps
Channel(s)                       : 2 channels
Channel positions                : Front: L R
Sampling rate                    : 48.0 KHz
Video delay                      : 8ms
Stream size                      : 109 MiB (2%)
Title                            : English

Audio 2
Format                           : AC-3
Format/Info                      : Audio Coding 3
Mode extension                   : CM (complete main)
Codec ID                         : A_AC3
Bit rate mode                    : Constant
Bit rate                         : 384 Kbps
Channel(s)                       : 6 channels
Channel positions                : Front: L C R, Side: L R, LFE
Sampling rate                    : 48.0 KHz
Stream size                      : 328 MiB (7%)
Title                            : Polish
Language                         : Polish

Text 1
Format                           : UTF-8
Codec ID                         : S_TEXT/UTF8
Codec ID/Info                    : UTF-8 Plain Text
Title                            : English

Text 2
Format                           : UTF-8
Codec ID                         : S_TEXT/UTF8
Codec ID/Info                    : UTF-8 Plain Text
Title                            : Polish
Language                         : Polish
